# xmcd CD database file
#
# Track frame offsets:
#	150
#	19275
#	36375
#	55275
#	68926
#	88651
#	101776
#	122477
#	144228
#	159603
#	181954
#	197780
#	217730
#	251181
#	270006
#	301132
#
# Disc length: 4327 seconds
#
# Revision: 0
# Processed by: cddbd v1.5.2PL0 Copyright (c) Steve Scherf et al.
# Submitted via: CDex 1.70beta2
#
DISCID=de10e510
DTITLE=西岡恭蔵 - GloryHallelujah
DYEAR=2002
DGENRE=Blues
TTITLE0=サーカスにはピエロが
TTITLE1=プカプカ
TTITLE2=春一番
TTITLE3=踊り子ルイーズ
TTITLE4=GYPSY SONG
TTITLE5=アフリカの月
TTITLE6=俺達の子守り唄
TTITLE7=NEVERLAND2
TTITLE8=燃えるキングストン
TTITLE9=ハーレム25時
TTITLE10=マンハッタン・ララバイ
TTITLE11=自転車に乗って
TTITLE12=思い出のサンフランシスコ
TTITLE13=HEART TO HEART
TTITLE14=Glory Hallelujah
TTITLE15=Farewell Song
EXTD=YEAR: 2002
EXTT0=
EXTT1=
EXTT2=
EXTT3=
EXTT4=
EXTT5=
EXTT6=
EXTT7=
EXTT8=
EXTT9=
EXTT10=
EXTT11=
EXTT12=
EXTT13=
EXTT14=
EXTT15=
PLAYORDER=
